<?xml version="1.0" encoding="UTF-8"?>
<!DOCTYPE svg PUBLIC "-//W3C//DTD SVG 1.1//EN" "http://www.w3.org/Graphics/SVG/1.1/DTD/svg11.dtd">
<svg xmlns="http://www.w3.org/2000/svg" version="1.1" width="3840px" height="2400px" style="shape-rendering:geometricPrecision; text-rendering:geometricPrecision; image-rendering:optimizeQuality; fill-rule:evenodd; clip-rule:evenodd" xmlns:xlink="http://www.w3.org/1999/xlink">
<g><path style="opacity:0.196" fill="#f6cece" d="M 415.5,594.5 C 555.333,593.334 695.333,593.167 835.5,594C 834.262,594.69 834.262,595.19 835.5,595.5C 835.158,596.338 834.492,596.672 833.5,596.5C 694.264,595.832 554.931,595.165 415.5,594.5 Z"/></g>
<g><path style="opacity:0.196" fill="#f6cece" d="M 1474.5,595.5 C 1474.5,596.167 1474.17,596.5 1473.5,596.5C 1334.67,595.5 1195.67,595.167 1056.5,595.5C 1056.08,594.778 1055.42,594.278 1054.5,594C 1124.5,593.833 1194.5,593.667 1264.5,593.5C 1334.84,593.5 1404.84,594.167 1474.5,595.5 Z"/></g>
<g><path style="opacity:0.196" fill="#f6cece" d="M 2579.5,595.5 C 2579.16,596.338 2578.49,596.672 2577.5,596.5C 2276.67,595.5 1975.67,595.167 1674.5,595.5C 1674.5,595.833 1674.5,596.167 1674.5,596.5C 1673.51,596.672 1672.84,596.338 1672.5,595.5C 1823,594.167 1973.83,593.5 2125,593.5C 2275.83,593.667 2426.67,593.833 2577.5,594C 2578.04,594.717 2578.71,595.217 2579.5,595.5 Z"/></g>
<g><path style="opacity:0.196" fill="#f6b4ac" d="M 2963.5,594.5 C 2964.62,593.243 2965.29,593.576 2965.5,595.5C 2964.83,596.833 2964.17,596.833 2963.5,595.5C 2964.83,595.167 2964.83,594.833 2963.5,594.5 Z"/></g>
<g><path style="opacity:0.196" fill="#f6cece" d="M 3672.5,593.5 C 3672.5,593.833 3672.5,594.167 3672.5,594.5C 3672.5,594.833 3672.5,595.167 3672.5,595.5C 3440.35,595.495 3208.68,595.495 2977.5,595.5C 2977.17,594.167 2976.83,594.167 2976.5,595.5C 2975.83,595.5 2975.5,595.833 2975.5,596.5C 2972.29,596.81 2969.29,596.477 2966.5,595.5C 2966.72,592.903 2967.22,592.903 2968,595.5C 3202.62,593.502 3437.46,592.835 3672.5,593.5 Z"/></g>
<g><path style="opacity:0.987" fill="#d20a0a" d="M 2559.5,674.5 C 2557.45,681.654 2555.62,688.987 2554,696.5C 2553.74,698.618 2552.74,700.284 2551,701.5C 2550.67,704.5 2550.33,707.5 2550,710.5C 2547.21,719.866 2544.21,729.199 2541,738.5C 2536.09,757.935 2531.09,777.268 2526,796.5C 2525.44,798.725 2524.44,800.725 2523,802.5C 2518.75,821.35 2514.09,840.016 2509,858.5C 2507.78,862.615 2505.78,866.282 2503,869.5C 2207.47,869.102 1907.47,869.102 1603,869.5C 1599.3,869.387 1597.14,867.554 1596.5,864C 1596.89,860.823 1598.06,857.99 1600,855.5C 1600.22,852.574 1600.72,849.74 1601.5,847C 1601.17,846.667 1600.83,846.333 1600.5,846C 1601.45,845.517 1602.45,845.351 1603.5,845.5C 1603.34,842.482 1603.5,839.482 1604,836.5C 1605.99,831.855 1607.49,827.355 1608.5,823C 1608.17,822.667 1607.83,822.333 1607.5,822C 1610.82,818.866 1611.82,815.533 1610.5,812C 1611.4,809.429 1612.73,807.096 1614.5,805C 1613.35,800.885 1614.19,796.718 1617,792.5C 1617.25,790.567 1617.75,788.734 1618.5,787C 1617.88,784.532 1618.72,782.366 1621,780.5C 1621.04,775.488 1622.2,770.821 1624.5,766.5C 1624.29,765.914 1623.96,765.414 1623.5,765C 1626.22,758.095 1628.72,751.262 1631,744.5C 1631.33,741.5 1631.67,738.5 1632,735.5C 1633.42,732.839 1634.59,730.006 1635.5,727C 1634.64,723.834 1635.47,721 1638,718.5C 1638.24,716.236 1638.74,714.069 1639.5,712C 1638.54,710.853 1638.88,709.853 1640.5,709C 1640.17,708.667 1639.83,708.333 1639.5,708C 1641.09,705.614 1642.09,702.947 1642.5,700C 1642.17,699.667 1641.83,699.333 1641.5,699C 1644.24,696.037 1645.24,692.704 1644.5,689C 1645.62,685.645 1647.12,682.478 1649,679.5C 1648.92,674.906 1650.08,670.74 1652.5,667C 1652.17,666 1651.83,665 1651.5,664C 1653.35,660.126 1655.02,656.126 1656.5,652C 1656.17,651 1655.83,650 1655.5,649C 1656.31,647.887 1656.97,646.721 1657.5,645.5C 1658.89,640.061 1660.56,634.561 1662.5,629C 1661.1,627.351 1661.44,626.018 1663.5,625C 1663.17,624.667 1662.83,624.333 1662.5,624C 1665.73,619.722 1667.23,614.888 1667,609.5C 1669.35,606.031 1670.18,602.364 1669.5,598.5C 1670.55,597.452 1671.55,596.452 1672.5,595.5C 1672.84,596.338 1673.51,596.672 1674.5,596.5C 1975.5,597.833 2276.5,597.833 2577.5,596.5C 2578.49,596.672 2579.16,596.338 2579.5,595.5C 2582.2,596.867 2582.03,598.867 2579,601.5C 2577.84,607.947 2576.51,614.281 2575,620.5C 2572.73,626.142 2570.73,631.808 2569,637.5C 2566.89,650.133 2563.72,662.466 2559.5,674.5 Z"/></g>
<g><path style="opacity:0.989" fill="#d20a0a" d="M 2963.5,594.5 C 2963.5,594.833 2963.5,595.167 2963.5,595.5C 2964.17,596.833 2964.83,596.833 2965.5,595.5C 2965.83,595.5 2966.17,595.5 2966.5,595.5C 2969.29,596.477 2972.29,596.81 2975.5,596.5C 3208.5,596.5 3441.5,596.5 3674.5,596.5C 3674.67,600.514 3674.5,604.514 3674,608.5C 3673.33,609.167 3672.67,609.833 3672,610.5C 3668,626.842 3663.83,643.175 3659.5,659.5C 3657.14,667.291 3654.97,675.291 3653,683.5C 3652.58,684.672 3651.91,685.672 3651,686.5C 3648.74,697.516 3646.07,708.516 3643,719.5C 3642.44,721.725 3641.44,723.725 3640,725.5C 3637.98,736.931 3635.31,748.264 3632,759.5C 3631.33,760.167 3630.67,760.833 3630,761.5C 3629.67,764.5 3629.33,767.5 3629,770.5C 3627.31,776.225 3625.31,781.891 3623,787.5C 3622.67,790.167 3622.33,792.833 3622,795.5C 3619.02,804.805 3616.02,814.138 3613,823.5C 3610.15,838.518 3606.15,853.185 3601,867.5C 3599.67,868.167 3598.33,868.833 3597,869.5C 3443.63,868.571 3287.63,868.238 3129,868.5C 3124.53,868.978 3120.2,869.978 3116,871.5C 3115.67,871.167 3115.33,870.833 3115,870.5C 3110.92,871.3 3106.75,871.8 3102.5,872C 3101.58,872.278 3100.92,872.778 3100.5,873.5C 3079.49,878.353 3066.99,891.686 3063,913.5C 3062.33,914.167 3061.67,914.833 3061,915.5C 3060.67,918.5 3060.33,921.5 3060,924.5C 3058.62,930.374 3056.62,936.04 3054,941.5C 3053.67,944.5 3053.33,947.5 3053,950.5C 3052.33,951.167 3051.67,951.833 3051,952.5C 3048.08,967.813 3044.41,982.813 3040,997.5C 3037.76,1004.23 3035.43,1010.9 3033,1017.5C 3027.93,1035.75 3023.26,1054.08 3019,1072.5C 3018.53,1074.78 3017.53,1076.78 3016,1078.5C 3015.67,1081.5 3015.33,1084.5 3015,1087.5C 3014.33,1088.17 3013.67,1088.83 3013,1089.5C 3012.67,1092.5 3012.33,1095.5 3012,1098.5C 3009.76,1105.25 3007.43,1111.91 3005,1118.5C 3003.4,1124.7 3002.06,1131.03 3001,1137.5C 2999.31,1143.31 2997.31,1148.98 2995,1154.5C 2993.49,1160.72 2992.16,1167.05 2991,1173.5C 2990.53,1175.78 2989.53,1177.78 2988,1179.5C 2987.67,1182.5 2987.33,1185.5 2987,1188.5C 2986.33,1189.17 2985.67,1189.83 2985,1190.5C 2980.31,1211.45 2974.81,1232.12 2968.5,1252.5C 2945.69,1335.83 2922.52,1419.16 2899,1502.5C 2896.03,1515.68 2898.86,1527.18 2907.5,1537C 2911.01,1539.26 2914.35,1541.76 2917.5,1544.5C 2921.11,1545.63 2924.61,1546.96 2928,1548.5C 2928.33,1548.17 2928.67,1547.83 2929,1547.5C 2932.97,1550.53 2936.97,1551.53 2941,1550.5C 2945,1551.17 2949,1551.83 2953,1552.5C 3114.39,1551.61 3276.05,1551.27 3438,1551.5C 3439.81,1552.24 3441.65,1552.91 3443.5,1553.5C 3443.92,1554.26 3444.26,1555.1 3444.5,1556C 3440.96,1568.38 3437.63,1580.88 3434.5,1593.5C 3433.86,1594.97 3433.03,1596.3 3432,1597.5C 3429.89,1608.98 3427.22,1620.31 3424,1631.5C 3423.33,1632.17 3422.67,1632.83 3422,1633.5C 3421.67,1636.5 3421.33,1639.5 3421,1642.5C 3419.4,1648.28 3417.4,1653.95 3415,1659.5C 3414.66,1662.88 3414.16,1666.21 3413.5,1669.5C 3410.9,1676.84 3408.73,1684.51 3407,1692.5C 3404.74,1698.68 3402.58,1704.84 3400.5,1711C 3400.83,1711.33 3401.17,1711.67 3401.5,1712C 3391.22,1747.3 3381.39,1782.8 3372,1818.5C 3370.99,1821.56 3369.82,1824.56 3368.5,1827.5C 3367.31,1828.43 3365.98,1828.76 3364.5,1828.5C 3364.61,1827.88 3364.94,1827.38 3365.5,1827C 3363.24,1826.76 3361.07,1826.26 3359,1825.5C 3133.62,1826.46 2908.29,1826.46 2683,1825.5C 2680.59,1826.27 2678.09,1826.77 2675.5,1827C 2676.06,1827.38 2676.39,1827.88 2676.5,1828.5C 2672.5,1828.28 2668.67,1828.28 2665,1828.5C 2663.24,1828.06 2663.4,1827.56 2665.5,1827C 2662.24,1826.79 2659.08,1826.29 2656,1825.5C 2654.11,1826.09 2652.11,1826.42 2650,1826.5C 2645.94,1825.08 2641.94,1824.08 2638,1823.5C 2637.67,1823.83 2637.33,1824.17 2637,1824.5C 2635.66,1822.4 2634,1821.73 2632,1822.5C 2628.59,1821.71 2625.09,1821.21 2621.5,1821C 2613.41,1819.29 2606.07,1817.46 2599.5,1815.5C 2596.98,1815.58 2594.64,1814.41 2592.5,1812C 2589.91,1811.77 2587.41,1811.27 2585,1810.5C 2584.67,1810.83 2584.33,1811.17 2584,1811.5C 2583.5,1810.33 2582.67,1809.5 2581.5,1809C 2576.09,1807.53 2570.76,1805.86 2565.5,1804C 2564.11,1801.81 2562.11,1800.65 2559.5,1800.5C 2558.15,1799.4 2556.65,1798.4 2555,1797.5C 2554.67,1797.83 2554.33,1798.17 2554,1798.5C 2550.54,1795.86 2547.04,1793.36 2543.5,1791C 2542.55,1790.38 2541.72,1790.55 2541,1791.5C 2533.85,1786.25 2526.02,1780.92 2517.5,1775.5C 2499.26,1760.47 2484.09,1742.8 2472,1722.5C 2468.71,1715.32 2466.05,1707.99 2464,1700.5C 2462.83,1698.67 2461.67,1696.83 2460.5,1695C 2459.9,1692.1 2459.9,1689.44 2460.5,1687C 2457.96,1682.46 2456.63,1677.79 2456.5,1673C 2457.81,1664.37 2457.81,1655.7 2456.5,1647C 2457.86,1645.17 2458.19,1643.34 2457.5,1641.5C 2459.23,1637.63 2459.89,1633.8 2459.5,1630C 2462.97,1621.96 2465.64,1613.63 2467.5,1605C 2467.36,1604.23 2467.02,1603.56 2466.5,1603C 2468.1,1598.59 2469.77,1594.59 2471.5,1591C 2470.42,1587.81 2471.25,1584.65 2474,1581.5C 2474.24,1579.24 2474.74,1577.07 2475.5,1575C 2474.85,1573.39 2475.35,1571.89 2477,1570.5C 2477.15,1565.09 2478.48,1560.09 2481,1555.5C 2481.24,1553.24 2481.74,1551.07 2482.5,1549C 2482.17,1548.67 2481.83,1548.33 2481.5,1548C 2484.78,1544.55 2485.78,1540.88 2484.5,1537C 2487.32,1533.31 2488.32,1529.65 2487.5,1526C 2488.77,1522.63 2490.44,1519.46 2492.5,1516.5C 2491.89,1512.4 2492.89,1508.57 2495.5,1505C 2495.5,1502.67 2495.5,1500.33 2495.5,1498C 2497.18,1496.05 2497.85,1494.05 2497.5,1492C 2501.42,1482.24 2504.26,1472.07 2506,1461.5C 2506.42,1458.87 2507.59,1456.7 2509.5,1455C 2508.26,1451.41 2509.1,1447.91 2512,1444.5C 2512.23,1441.91 2512.73,1439.41 2513.5,1437C 2513.17,1436.67 2512.83,1436.33 2512.5,1436C 2513.43,1435.61 2514.09,1434.95 2514.5,1434C 2515.31,1426.91 2517.31,1420.25 2520.5,1414C 2520.17,1413 2519.83,1412 2519.5,1411C 2522.63,1407.76 2523.63,1404.43 2522.5,1401C 2524.29,1398.21 2525.62,1395.21 2526.5,1392C 2526.25,1389.91 2526.25,1387.91 2526.5,1386C 2527.67,1384.17 2528.83,1382.33 2530,1380.5C 2531.83,1373.97 2533.16,1367.31 2534,1360.5C 2534.96,1359.42 2535.79,1358.25 2536.5,1357C 2536.5,1354.67 2536.5,1352.33 2536.5,1350C 2537.12,1347.82 2538.28,1345.99 2540,1344.5C 2540.23,1341.91 2540.73,1339.41 2541.5,1337C 2540.85,1335.39 2541.35,1333.89 2543,1332.5C 2542.77,1327.07 2544.27,1322.24 2547.5,1318C 2547.5,1315.33 2547.5,1312.67 2547.5,1310C 2550.19,1306.96 2551.19,1303.63 2550.5,1300C 2553.11,1296.43 2554.11,1292.6 2553.5,1288.5C 2555.04,1285.25 2556.71,1282.09 2558.5,1279C 2558.17,1278 2557.83,1277 2557.5,1276C 2558.58,1272.74 2559.91,1269.58 2561.5,1266.5C 2561.12,1262.51 2562.12,1258.68 2564.5,1255C 2564.01,1252.27 2564.68,1249.6 2566.5,1247C 2566.17,1246.67 2565.83,1246.33 2565.5,1246C 2566.67,1245.5 2567.5,1244.67 2568,1243.5C 2568.33,1240.5 2568.67,1237.5 2569,1234.5C 2570.69,1227.75 2572.86,1221.09 2575.5,1214.5C 2574.88,1212 2575.55,1209.67 2577.5,1207.5C 2578.21,1204.97 2578.88,1202.47 2579.5,1200C 2579.17,1199.67 2578.83,1199.33 2578.5,1199C 2580.77,1196.06 2582.1,1192.72 2582.5,1189C 2582.17,1188.67 2581.83,1188.33 2581.5,1188C 2584.03,1183.61 2585.7,1178.95 2586.5,1174C 2586.17,1173.67 2585.83,1173.33 2585.5,1173C 2588.68,1170.15 2589.68,1167.15 2588.5,1164C 2591.27,1153.13 2594.77,1142.3 2599,1131.5C 2599.96,1124.89 2601.46,1118.72 2603.5,1113C 2602.88,1110.53 2603.72,1108.37 2606,1106.5C 2606.33,1103.5 2606.67,1100.5 2607,1097.5C 2607.67,1096.83 2608.33,1096.17 2609,1095.5C 2608.77,1089.5 2610.27,1084 2613.5,1079C 2613.5,1076.67 2613.5,1074.33 2613.5,1072C 2614.33,1071.17 2615.17,1070.33 2616,1069.5C 2616.49,1063.69 2617.99,1058.19 2620.5,1053C 2620.17,1052 2619.83,1051 2619.5,1050C 2620.47,1047.71 2621.81,1045.71 2623.5,1044C 2623.5,1041.67 2623.5,1039.33 2623.5,1037C 2624.49,1035.18 2625.49,1033.35 2626.5,1031.5C 2626.96,1026.07 2628.3,1020.9 2630.5,1016C 2630.01,1012.2 2631.17,1008.7 2634,1005.5C 2634.33,1002.5 2634.67,999.5 2635,996.5C 2635.67,995.833 2636.33,995.167 2637,994.5C 2636.89,988.229 2638.39,982.395 2641.5,977C 2640.68,974.115 2641.52,971.615 2644,969.5C 2644.23,966.905 2644.73,964.405 2645.5,962C 2644.85,960.391 2645.35,958.891 2647,957.5C 2648.37,949.763 2650.04,942.096 2652,934.5C 2654.28,932.634 2655.12,930.468 2654.5,928C 2656.39,923.378 2657.55,918.544 2658,913.5C 2658.74,909.938 2660.24,906.772 2662.5,904C 2662.17,903.667 2661.83,903.333 2661.5,903C 2662.26,900.931 2662.76,898.764 2663,896.5C 2664.64,891.294 2666.47,886.128 2668.5,881C 2667.55,878.812 2667.55,876.478 2668.5,874C 2672.03,869.775 2673.37,865.108 2672.5,860C 2673.33,859.167 2674.17,858.333 2675,857.5C 2675.33,854.5 2675.67,851.5 2676,848.5C 2677.54,845.829 2678.71,842.996 2679.5,840C 2679.17,839.667 2678.83,839.333 2678.5,839C 2679.91,834.855 2681.58,830.855 2683.5,827C 2683.17,826.667 2682.83,826.333 2682.5,826C 2684.76,821.471 2685.92,816.637 2686,811.5C 2688.84,807.55 2690.01,803.383 2689.5,799C 2690.21,796.457 2691.54,794.291 2693.5,792.5C 2692.83,788.07 2693.83,783.903 2696.5,780C 2696.17,779 2695.83,778 2695.5,777C 2698.92,771.666 2700.75,765.832 2701,759.5C 2702.02,760.634 2702.68,760.301 2703,758.5C 2713.96,719.154 2734.46,684.987 2764.5,656C 2787.74,635.551 2814.08,621.885 2843.5,615C 2847.62,611.77 2851.78,610.603 2856,611.5C 2861.13,608.712 2866.13,607.712 2871,608.5C 2873.67,607.167 2876.33,605.833 2879,604.5C 2881.18,604.428 2883.18,604.762 2885,605.5C 2890.56,603.424 2896.23,601.757 2902,600.5C 2903,600.833 2904,601.167 2905,601.5C 2912.13,600.941 2919.13,599.608 2926,597.5C 2928.33,597.833 2930.67,598.167 2933,598.5C 2938.08,597.693 2943.25,597.193 2948.5,597C 2949.99,595.632 2951.49,595.465 2953,596.5C 2954.33,593.833 2955.67,593.833 2957,596.5C 2957.67,595.833 2958.33,595.167 2959,594.5C 2960.45,594.736 2961.95,594.736 2963.5,594.5 Z"/></g>
<g><path style="opacity:0.99" fill="#d20a0a" d="M 414.5,595.5 C 553.999,596.5 693.666,596.833 833.5,596.5C 834.492,596.672 835.158,596.338 835.5,595.5C 837.755,598.674 837.255,601.674 834,604.5C 833.667,607.5 833.333,610.5 833,613.5C 831.315,619.261 829.315,624.928 827,630.5C 826.667,633.5 826.333,636.5 826,639.5C 825.333,640.167 824.667,640.833 824,641.5C 823.667,644.167 823.333,646.833 823,649.5C 817.871,666.675 813.038,684.008 808.5,701.5C 806.001,705.404 804.834,709.737 805,714.5C 802.007,723.823 799.007,733.157 796,742.5C 793.765,754.313 790.932,765.98 787.5,777.5C 786.883,777.611 786.383,777.944 786,778.5C 780.449,799.164 775.116,819.83 770,840.5C 769.333,841.167 768.667,841.833 768,842.5C 766.667,849.167 765.333,855.833 764,862.5C 761.765,868.138 759.765,873.804 758,879.5C 753.188,900.354 747.688,921.021 741.5,941.5C 725.076,999.545 708.743,1057.88 692.5,1116.5C 683.247,1149.3 674.414,1182.3 666,1215.5C 665.333,1216.17 664.667,1216.83 664,1217.5C 664.082,1221.85 663.082,1225.85 661,1229.5C 659.342,1237.15 657.676,1244.81 656,1252.5C 655.333,1253.17 654.667,1253.83 654,1254.5C 651.794,1265.61 649.127,1276.61 646,1287.5C 645.07,1289.94 643.903,1292.27 642.5,1294.5C 642.709,1295.09 643.043,1295.59 643.5,1296C 636.225,1319.39 629.392,1342.89 623,1366.5C 621.615,1374.26 619.948,1381.92 618,1389.5C 617.333,1390.17 616.667,1390.83 616,1391.5C 614.866,1397.9 613.533,1404.23 612,1410.5C 609.054,1417.01 606.721,1423.67 605,1430.5C 600,1450.5 595,1470.5 590,1490.5C 589.333,1491.17 588.667,1491.83 588,1492.5C 587.969,1496.77 586.969,1500.77 585,1504.5C 582.566,1515.71 584.9,1525.71 592,1534.5C 595.274,1538.45 599.107,1541.62 603.5,1544C 614.666,1549.1 625.833,1551.93 637,1552.5C 665.689,1551.21 695.356,1551.21 726,1552.5C 731,1551.83 736,1551.17 741,1550.5C 743.811,1550.39 746.478,1550.72 749,1551.5C 757.546,1549.19 766.379,1546.69 775.5,1544C 778.833,1541.67 782.167,1539.33 785.5,1537C 787.407,1533.97 789.741,1531.31 792.5,1529C 792.167,1528.67 791.833,1528.33 791.5,1528C 795.754,1522.9 798.254,1517.07 799,1510.5C 799.795,1508.1 800.962,1505.93 802.5,1504C 802.5,1501.67 802.5,1499.33 802.5,1497C 803.667,1495.17 804.833,1493.33 806,1491.5C 806.076,1486.31 807.243,1481.48 809.5,1477C 809.167,1476 808.833,1475 808.5,1474C 810.301,1473.68 810.634,1473.02 809.5,1472C 812.797,1467.42 814.297,1462.26 814,1456.5C 815.016,1457.63 815.683,1457.3 816,1455.5C 815.834,1450.74 817.001,1446.4 819.5,1442.5C 819.277,1441.03 818.944,1439.53 818.5,1438C 820.301,1437.68 820.634,1437.02 819.5,1436C 820.289,1433.63 821.456,1431.47 823,1429.5C 823.333,1426.5 823.667,1423.5 824,1420.5C 824.667,1419.83 825.333,1419.17 826,1418.5C 826.226,1415.91 826.726,1413.41 827.5,1411C 827.167,1410.67 826.833,1410.33 826.5,1410C 829.564,1400.81 832.73,1391.31 836,1381.5C 836.287,1379.11 836.787,1376.78 837.5,1374.5C 837.291,1373.91 836.957,1373.41 836.5,1373C 838.423,1369.82 840.089,1366.49 841.5,1363C 841.167,1362.67 840.833,1362.33 840.5,1362C 841.158,1359.27 842.325,1356.77 844,1354.5C 844.036,1349.54 845.202,1344.87 847.5,1340.5C 846.93,1336.49 848.096,1332.82 851,1329.5C 852.1,1322.7 853.434,1316.03 855,1309.5C 857.487,1299.89 860.487,1290.56 864,1281.5C 863.629,1276.05 865.129,1270.88 868.5,1266C 867.794,1261.52 868.961,1257.35 872,1253.5C 872.076,1248.31 873.243,1243.48 875.5,1239C 875.553,1234.84 876.886,1230.84 879.5,1227C 879.167,1226.67 878.833,1226.33 878.5,1226C 879.264,1223.93 879.764,1221.76 880,1219.5C 880.667,1218.83 881.333,1218.17 882,1217.5C 882.036,1212.54 883.202,1207.87 885.5,1203.5C 885.081,1199.23 886.248,1195.23 889,1191.5C 890.076,1185.05 891.409,1178.72 893,1172.5C 895.14,1169.46 895.973,1166.29 895.5,1163C 896.9,1158.87 898.566,1154.87 900.5,1151C 899.378,1148.52 899.878,1146.36 902,1144.5C 902.236,1142.24 902.736,1140.07 903.5,1138C 903.23,1134.81 904.23,1131.81 906.5,1129C 906.298,1124.66 907.465,1120.49 910,1116.5C 909.962,1112.23 911.129,1108.4 913.5,1105C 913.384,1103.73 913.051,1102.4 912.5,1101C 913.63,1097.07 915.296,1093.41 917.5,1090C 917.167,1089.67 916.833,1089.33 916.5,1089C 917.264,1086.93 917.764,1084.76 918,1082.5C 918.667,1081.83 919.333,1081.17 920,1080.5C 920.925,1073.73 922.259,1067.07 924,1060.5C 926.591,1056.36 928.091,1051.86 928.5,1047C 927.742,1045.64 928.242,1044.47 930,1043.5C 929.911,1037.85 931.411,1032.68 934.5,1028C 934.167,1027 933.833,1026 933.5,1025C 934.614,1021.66 936.114,1018.49 938,1015.5C 938.448,1010.46 939.614,1005.62 941.5,1001C 941.167,1000.67 940.833,1000.33 940.5,1000C 942.362,996.081 944.029,992.081 945.5,988C 945.167,987 944.833,986 944.5,985C 947.802,981.152 949.302,976.652 949,971.5C 949.707,969.919 950.54,968.419 951.5,967C 950.736,962.55 951.903,958.05 955,953.5C 955.333,950.833 955.667,948.167 956,945.5C 956.667,944.833 957.333,944.167 958,943.5C 958.455,937.059 959.955,930.893 962.5,925C 962.167,924.667 961.833,924.333 961.5,924C 964.15,920.026 965.817,915.693 966.5,911C 965.85,909.391 966.35,907.891 968,906.5C 970.295,898.009 972.295,889.676 974,881.5C 974.667,880.833 975.333,880.167 976,879.5C 975.975,874.153 977.142,869.153 979.5,864.5C 979.291,863.914 978.957,863.414 978.5,863C 979.917,859.406 981.584,855.906 983.5,852.5C 982.848,848.96 983.681,845.627 986,842.5C 986.333,839.833 986.667,837.167 987,834.5C 987.465,833.069 988.299,831.903 989.5,831C 988.813,825.942 989.979,821.109 993,816.5C 992.908,812.707 993.908,809.373 996,806.5C 996.226,803.905 996.726,801.405 997.5,799C 997.167,798.667 996.833,798.333 996.5,798C 999.332,794.279 1000.33,790.612 999.5,787C 1001.04,783.424 1002.71,779.924 1004.5,776.5C 1003.32,773.187 1004.32,770.021 1007.5,767C 1006.83,765.249 1006.49,763.583 1006.5,762C 1009.13,757.462 1010.47,752.796 1010.5,748C 1011.12,745.821 1012.28,743.988 1014,742.5C 1013.87,737.577 1015.04,733.077 1017.5,729C 1017.17,728.667 1016.83,728.333 1016.5,728C 1019.77,717.943 1022.77,707.943 1025.5,698C 1025.17,697.667 1024.83,697.333 1024.5,697C 1026.57,693.979 1027.91,690.645 1028.5,687C 1028.17,686.667 1027.83,686.333 1027.5,686C 1029.7,682.592 1031.37,678.925 1032.5,675C 1031.95,673.602 1031.62,672.268 1031.5,671C 1034.45,668.332 1035.45,665.166 1034.5,661.5C 1035.98,658.712 1037.31,655.878 1038.5,653C 1038.17,652 1037.83,651 1037.5,650C 1041.13,644.762 1042.97,638.929 1043,632.5C 1043.83,631.667 1044.67,630.833 1045.5,630C 1045.17,628.333 1044.83,626.667 1044.5,625C 1047.13,620.462 1048.47,615.796 1048.5,611C 1049.12,608.821 1050.28,606.988 1052,605.5C 1052.18,602.305 1052.68,599.305 1053.5,596.5C 1193.55,597.829 1333.55,597.829 1473.5,596.5C 1474.17,596.5 1474.5,596.167 1474.5,595.5C 1475.88,595.962 1476.55,596.962 1476.5,598.5C 1474.36,605.769 1472.53,613.102 1471,620.5C 1470.33,621.167 1469.67,621.833 1469,622.5C 1468.67,625.5 1468.33,628.5 1468,631.5C 1466.4,637.281 1464.4,642.948 1462,648.5C 1461.67,651.167 1461.33,653.833 1461,656.5C 1458.95,659.813 1457.95,663.479 1458,667.5C 1452.54,685.348 1447.54,703.348 1443,721.5C 1442.33,722.167 1441.67,722.833 1441,723.5C 1441.08,727.848 1440.08,731.848 1438,735.5C 1437.67,738.167 1437.33,740.833 1437,743.5C 1434.73,749.142 1432.73,754.808 1431,760.5C 1424.64,784.86 1418.14,809.193 1411.5,833.5C 1409.42,841.721 1407.25,850.054 1405,858.5C 1404.33,859.167 1403.67,859.833 1403,860.5C 1401.67,867.167 1400.33,873.833 1399,880.5C 1396.73,886.142 1394.73,891.808 1393,897.5C 1387.46,918.091 1382.12,938.757 1377,959.5C 1376.33,960.167 1375.67,960.833 1375,961.5C 1373.67,968.167 1372.33,974.833 1371,981.5C 1368.82,991.294 1365.82,1000.63 1362,1009.5C 1360.26,1017.55 1358.42,1025.55 1356.5,1033.5C 1355.88,1033.61 1355.38,1033.94 1355,1034.5C 1353.33,1041.83 1351.67,1049.17 1350,1056.5C 1345.33,1069.44 1341.66,1082.78 1339,1096.5C 1338.33,1097.17 1337.67,1097.83 1337,1098.5C 1335.67,1105.17 1334.33,1111.83 1333,1118.5C 1328.08,1134.7 1323.41,1151.03 1319,1167.5C 1317.83,1170 1316.67,1172.5 1315.5,1175C 1315.83,1175.33 1316.17,1175.67 1316.5,1176C 1310.81,1195.01 1305.64,1214.18 1301,1233.5C 1300.33,1234.17 1299.67,1234.83 1299,1235.5C 1297.67,1242.17 1296.33,1248.83 1295,1255.5C 1292.73,1261.14 1290.73,1266.81 1289,1272.5C 1282.6,1296.98 1276.1,1321.32 1269.5,1345.5C 1247.37,1424.85 1225.37,1504.19 1203.5,1583.5C 1200.89,1591.54 1198.72,1599.87 1197,1608.5C 1196.33,1609.17 1195.67,1609.83 1195,1610.5C 1192.76,1623.96 1189.09,1636.96 1184,1649.5C 1182.56,1659.17 1179.89,1668.5 1176,1677.5C 1167.08,1700.33 1155.25,1721.66 1140.5,1741.5C 1110.01,1778.6 1072.18,1801.6 1027,1810.5C 1021.45,1810.59 1016.45,1812.26 1012,1815.5C 1008.93,1815.13 1005.59,1815.13 1002,1815.5C 999.763,1816.06 997.763,1817.06 996,1818.5C 991,1818.5 986,1818.5 981,1818.5C 979.052,1819.11 977.218,1819.78 975.5,1820.5C 964.119,1820.57 953.286,1822.24 943,1825.5C 933.898,1826.37 925.565,1826.37 918,1825.5C 914.667,1826.17 911.333,1826.83 908,1827.5C 906.984,1826.37 906.317,1826.7 906,1828.5C 903.045,1828.32 899.879,1828.32 896.5,1828.5C 893.836,1824.84 890.169,1823.67 885.5,1825C 887.5,1825.33 889.5,1825.67 891.5,1826C 890.584,1826.37 889.75,1826.87 889,1827.5C 886.333,1826.83 883.667,1826.17 881,1825.5C 705,1825.5 529,1825.5 353,1825.5C 350.06,1825.85 347.56,1826.85 345.5,1828.5C 341.069,1828.77 336.735,1828.44 332.5,1827.5C 329.437,1826.8 326.27,1826.13 323,1825.5C 319.264,1826.03 315.431,1826.03 311.5,1825.5C 294.71,1821.63 277.376,1817.96 259.5,1814.5C 259.5,1813.5 259.5,1812.5 259.5,1811.5C 250.496,1810.27 241.996,1807.6 234,1803.5C 233.667,1803.83 233.333,1804.17 233,1804.5C 217.931,1796.87 202.764,1787.87 187.5,1777.5C 136.561,1738.55 116.061,1688.22 126,1626.5C 127.364,1627.26 128.531,1626.76 129.5,1625C 129.5,1622.33 129.5,1619.67 129.5,1617C 130.022,1613.81 131.188,1611.64 133,1610.5C 132.996,1605.66 134.163,1601.16 136.5,1597C 136.167,1596 135.833,1595 135.5,1594C 136.812,1591.06 138.312,1588.23 140,1585.5C 140.333,1582.17 140.667,1578.83 141,1575.5C 142.016,1576.63 142.683,1576.3 143,1574.5C 143.333,1571.5 143.667,1568.5 144,1565.5C 146.594,1555.96 149.594,1546.62 153,1537.5C 153.226,1534.91 153.726,1532.41 154.5,1530C 154.167,1529.67 153.833,1529.33 153.5,1529C 156.079,1526.3 157.079,1523.3 156.5,1520C 157.203,1515.76 158.87,1511.93 161.5,1508.5C 161.291,1507.91 160.957,1507.41 160.5,1507C 162.306,1502.84 163.639,1498.51 164.5,1494C 164.167,1493.67 163.833,1493.33 163.5,1493C 165.016,1489.61 166.682,1485.94 168.5,1482C 167.8,1478.89 168.634,1476.06 171,1473.5C 171.154,1468.09 172.321,1462.93 174.5,1458C 172.859,1456.35 173.193,1455.35 175.5,1455C 175.167,1454.67 174.833,1454.33 174.5,1454C 177.727,1449.76 179.227,1444.93 179,1439.5C 180.811,1432.27 182.978,1425.1 185.5,1418C 185.167,1417.67 184.833,1417.33 184.5,1417C 185.636,1415.47 186.636,1414.14 187.5,1413C 187.167,1412.67 186.833,1412.33 186.5,1412C 188.091,1409.61 189.091,1406.95 189.5,1404C 188.742,1402.64 189.242,1401.47 191,1400.5C 190.676,1394.82 192.176,1389.66 195.5,1385C 195.167,1384.67 194.833,1384.33 194.5,1384C 195.264,1381.93 195.764,1379.76 196,1377.5C 198.941,1373.26 200.108,1368.76 199.5,1364C 201.045,1362.31 202.045,1360.31 202.5,1358C 202.167,1357 201.833,1356 201.5,1355C 205.403,1349.96 207.236,1344.46 207,1338.5C 207.667,1337.83 208.333,1337.17 209,1336.5C 208.87,1331.61 210.036,1327.11 212.5,1323C 212.5,1320.67 212.5,1318.33 212.5,1316C 215.866,1311.81 217.366,1306.98 217,1301.5C 217.667,1300.83 218.333,1300.17 219,1299.5C 219.226,1296.91 219.726,1294.41 220.5,1292C 220.167,1291.67 219.833,1291.33 219.5,1291C 222.317,1287.31 223.317,1283.65 222.5,1280C 224.2,1276.98 225.866,1273.98 227.5,1271C 226.499,1268.43 226.999,1265.6 229,1262.5C 229.909,1255.72 231.742,1248.88 234.5,1242C 234.167,1241.67 233.833,1241.33 233.5,1241C 234.428,1239.02 235.595,1237.19 237,1235.5C 237.114,1230.24 238.281,1225.24 240.5,1220.5C 240.291,1219.91 239.957,1219.41 239.5,1219C 243.174,1207.96 246.841,1196.96 250.5,1186C 250.5,1183.67 250.5,1181.33 250.5,1179C 254.034,1174.77 255.368,1170.11 254.5,1165C 257.233,1161.61 258.233,1157.95 257.5,1154C 260.735,1143.45 264.402,1132.79 268.5,1122C 268.167,1120.33 267.833,1118.67 267.5,1117C 270.956,1113.15 272.289,1108.82 271.5,1104C 272.116,1101.82 273.283,1099.99 275,1098.5C 274.94,1093.31 276.106,1088.48 278.5,1084C 277.498,1082.23 277.832,1080.57 279.5,1079C 279.167,1078.67 278.833,1078.33 278.5,1078C 282.034,1073.77 283.368,1069.11 282.5,1064C 283.333,1063.17 284.167,1062.33 285,1061.5C 284.774,1055.5 286.274,1050 289.5,1045C 288.978,1044.44 288.645,1043.77 288.5,1043C 291.696,1034.79 294.362,1026.79 296.5,1019C 296.043,1018.59 295.709,1018.09 295.5,1017.5C 298.165,1012.35 299.831,1006.85 300.5,1001C 301.34,999.829 302.173,998.662 303,997.5C 303.114,992.237 304.281,987.237 306.5,982.5C 306.278,978.337 307.612,974.504 310.5,971C 310.167,970.667 309.833,970.333 309.5,970C 310.264,967.931 310.764,965.764 311,963.5C 312.688,958.255 314.521,953.088 316.5,948C 316.5,945.667 316.5,943.333 316.5,941C 317.542,939.082 318.708,937.249 320,935.5C 320.386,928.861 321.886,922.694 324.5,917C 324.167,916.667 323.833,916.333 323.5,916C 326.51,910.164 328.677,904.33 330,898.5C 331.119,895.943 331.285,893.443 330.5,891C 333.323,887.352 334.323,883.352 333.5,879C 334.701,878.097 335.535,876.931 336,875.5C 336.606,872.57 337.44,869.737 338.5,867C 338.167,866.667 337.833,866.333 337.5,866C 340.727,861.759 342.227,856.926 342,851.5C 344.473,848.609 344.973,845.775 343.5,843C 344.703,840.076 346.203,836.91 348,833.5C 348.236,831.236 348.736,829.069 349.5,827C 348.742,825.636 349.242,824.469 351,823.5C 351.226,820.905 351.726,818.405 352.5,816C 352.167,815.667 351.833,815.333 351.5,815C 352.701,814.097 353.535,812.931 354,811.5C 353.885,806.407 355.218,801.74 358,797.5C 358.236,795.236 358.736,793.069 359.5,791C 358.85,789.391 359.35,787.891 361,786.5C 361.236,784.236 361.736,782.069 362.5,780C 362.167,779.667 361.833,779.333 361.5,779C 362.65,776.538 363.983,774.204 365.5,772C 364.606,767.774 365.772,763.607 369,759.5C 369.114,754.237 370.281,749.237 372.5,744.5C 372.291,743.914 371.957,743.414 371.5,743C 374.266,737.72 375.933,732.387 376.5,727C 376.769,725.393 377.603,724.226 379,723.5C 380.467,716.613 381.8,709.613 383,702.5C 384,700.5 385,698.5 386,696.5C 386.743,690.328 388.243,684.495 390.5,679C 390.167,678.667 389.833,678.333 389.5,678C 392.048,674.528 393.048,670.861 392.5,667C 393.911,663.512 395.577,660.178 397.5,657C 397.167,655.333 396.833,653.667 396.5,652C 398.301,651.683 398.634,651.016 397.5,650C 399.072,647.962 400.072,645.629 400.5,643C 400.218,639.841 401.218,636.841 403.5,634C 403.5,631.667 403.5,629.333 403.5,627C 406.936,623.243 408.436,618.743 408,613.5C 410.197,610.895 410.697,608.061 409.5,605C 411.085,602.125 412.752,598.958 414.5,595.5 Z"/></g>
<g><path style="opacity:0.404" fill="#e77978" d="M 415.5,594.5 C 554.931,595.165 694.264,595.832 833.5,596.5C 693.666,596.833 553.999,596.5 414.5,595.5C 415.167,595.5 415.5,595.167 415.5,594.5 Z"/></g>
<g><path style="opacity:0.404" fill="#e77978" d="M 3672.5,594.5 C 3672.5,594.167 3672.5,593.833 3672.5,593.5C 3674.05,593.821 3674.71,594.821 3674.5,596.5C 3441.5,596.5 3208.5,596.5 2975.5,596.5C 2975.5,595.833 2975.83,595.5 2976.5,595.5C 2976.83,595.5 2977.17,595.5 2977.5,595.5C 3208.68,595.495 3440.35,595.495 3672.5,595.5C 3673.83,595.167 3673.83,594.833 3672.5,594.5 Z"/></g>
<g><path style="opacity:0.804" fill="#e05350" d="M 1053.5,596.5 C 1054.21,595.596 1055.21,595.263 1056.5,595.5C 1195.67,595.167 1334.67,595.5 1473.5,596.5C 1333.55,597.829 1193.55,597.829 1053.5,596.5 Z"/></g>
<g><path style="opacity:0.804" fill="#e05350" d="M 1674.5,596.5 C 1674.5,596.167 1674.5,595.833 1674.5,595.5C 1975.67,595.167 2276.67,595.5 2577.5,596.5C 2276.5,597.833 1975.5,597.833 1674.5,596.5 Z"/></g>
<g><path style="opacity:0.102" fill="#d20b0a" d="M 1657.5,645.5 C 1656.83,644.167 1656.83,644.167 1657.5,645.5 Z"/></g>
<g><path style="opacity:0.102" fill="#d20b0a" d="M 3659.5,659.5 C 3660.83,660.167 3660.83,660.167 3659.5,659.5 Z"/></g>
<g><path style="opacity:0.102" fill="#d20b0a" d="M 2559.5,674.5 C 2560.83,675.167 2560.83,675.167 2559.5,674.5 Z"/></g>
<g><path style="opacity:0.102" fill="#d20b0a" d="M 787.5,777.5 C 788.833,778.167 788.833,778.167 787.5,777.5 Z"/></g>
<g><path style="opacity:0.102" fill="#d20b0a" d="M 1411.5,833.5 C 1412.83,834.167 1412.83,834.167 1411.5,833.5 Z"/></g>
<g><path style="opacity:0.102" fill="#d20b0a" d="M 1406.5,853.5 C 1407.83,854.167 1407.83,854.167 1406.5,853.5 Z"/></g>
<g><path style="opacity:0.102" fill="#d20b0a" d="M 3100.5,873.5 C 3101.83,874.167 3101.83,874.167 3100.5,873.5 Z"/></g>
<g><path style="opacity:0.102" fill="#d20b0a" d="M 741.5,941.5 C 742.833,942.167 742.833,942.167 741.5,941.5 Z"/></g>
<g><path style="opacity:0.102" fill="#d20b0a" d="M 1356.5,1033.5 C 1357.83,1034.17 1357.83,1034.17 1356.5,1033.5 Z"/></g>
<g><path style="opacity:0.984" fill="#d20a0a" d="M 2407.5,1223.5 C 2400.62,1243.99 2394.79,1264.99 2390,1286.5C 2389.09,1287.33 2388.42,1288.33 2388,1289.5C 2386.49,1295.72 2385.16,1302.05 2384,1308.5C 2383.53,1310.78 2382.53,1312.78 2381,1314.5C 2380.67,1317.5 2380.33,1320.5 2380,1323.5C 2378.33,1324.5 2376.67,1325.5 2375,1326.5C 2216.52,1326.76 2056.18,1326.43 1894,1325.5C 1891.88,1326.22 1891.38,1327.39 1892.5,1329C 1889.44,1334.79 1887.44,1340.96 1886.5,1347.5C 1873.65,1392.89 1860.99,1438.56 1848.5,1484.5C 1845.06,1496.76 1841.73,1509.1 1838.5,1521.5C 1835.87,1530.39 1833.21,1539.39 1830.5,1548.5C 1825.12,1570.33 1818.96,1592 1812,1613.5C 1812.05,1617.52 1811.05,1621.19 1809,1624.5C 1808.67,1627.17 1808.33,1629.83 1808,1632.5C 1806.31,1638.31 1804.31,1643.98 1802,1649.5C 1801.67,1652.17 1801.33,1654.83 1801,1657.5C 1798.95,1660.81 1797.95,1664.48 1798,1668.5C 1793.52,1680.15 1790.18,1692.15 1788,1704.5C 1785.44,1711.17 1783.11,1717.84 1781,1724.5C 1778.08,1739.86 1774.41,1754.86 1770,1769.5C 1768.12,1775.26 1766.12,1780.92 1764,1786.5C 1762.57,1793.21 1761.23,1799.88 1760,1806.5C 1757.49,1811.56 1755.82,1816.9 1755,1822.5C 1753.76,1824.86 1752.26,1826.86 1750.5,1828.5C 1751.9,1827.35 1751.73,1826.35 1750,1825.5C 1613.48,1826.49 1477.15,1826.49 1341,1825.5C 1338.93,1826.26 1336.76,1826.76 1334.5,1827C 1333.94,1827.38 1333.61,1827.88 1333.5,1828.5C 1332.5,1828.5 1331.5,1828.5 1330.5,1828.5C 1330.71,1826.86 1330.38,1825.36 1329.5,1824C 1331.38,1816.97 1334.05,1809.97 1337.5,1803C 1336.5,1800.43 1337,1797.6 1339,1794.5C 1339.24,1792.24 1339.74,1790.07 1340.5,1788C 1340.17,1787.67 1339.83,1787.33 1339.5,1787C 1342.97,1782.39 1344.31,1777.73 1343.5,1773C 1344.74,1770.88 1345.91,1768.72 1347,1766.5C 1347.07,1761.95 1348.24,1757.78 1350.5,1754C 1349.85,1749.79 1351.02,1745.95 1354,1742.5C 1354.33,1739.5 1354.67,1736.5 1355,1733.5C 1355.67,1732.83 1356.33,1732.17 1357,1731.5C 1356.8,1726.86 1357.96,1722.69 1360.5,1719C 1360.5,1716.67 1360.5,1714.33 1360.5,1712C 1361.27,1709.63 1362.43,1707.46 1364,1705.5C 1365.17,1699.02 1366.51,1692.36 1368,1685.5C 1369.04,1683.25 1370.21,1681.09 1371.5,1679C 1371.5,1676.67 1371.5,1674.33 1371.5,1672C 1373.36,1669.95 1374.69,1667.62 1375.5,1665C 1375.17,1664.67 1374.83,1664.33 1374.5,1664C 1375.83,1660 1377.17,1656 1378.5,1652C 1378.04,1647.88 1379.37,1644.22 1382.5,1641C 1381.55,1637.58 1382.39,1634.08 1385,1630.5C 1385.23,1627.91 1385.73,1625.41 1386.5,1623C 1386.17,1622.67 1385.83,1622.33 1385.5,1622C 1387.44,1620.18 1388.11,1618.18 1387.5,1616C 1388.03,1612.07 1389.53,1608.57 1392,1605.5C 1392.22,1602.57 1392.72,1599.74 1393.5,1597C 1393.17,1596.67 1392.83,1596.33 1392.5,1596C 1393.42,1595.63 1394.25,1595.13 1395,1594.5C 1395.33,1591.5 1395.67,1588.5 1396,1585.5C 1398.06,1582.41 1398.9,1579.24 1398.5,1576C 1399.91,1571.86 1401.58,1567.86 1403.5,1564C 1403.38,1562.73 1403.05,1561.4 1402.5,1560C 1403.67,1559.5 1404.5,1558.67 1405,1557.5C 1405.22,1554.57 1405.72,1551.74 1406.5,1549C 1406.17,1548.67 1405.83,1548.33 1405.5,1548C 1407.03,1546.41 1408.19,1544.58 1409,1542.5C 1409.07,1537.68 1410.4,1533.35 1413,1529.5C 1413.21,1524.02 1414.38,1518.86 1416.5,1514C 1416.11,1510.66 1417.44,1507.33 1420.5,1504C 1420.17,1503.67 1419.83,1503.33 1419.5,1503C 1420.27,1500.59 1420.77,1498.09 1421,1495.5C 1421.67,1494.83 1422.33,1494.17 1423,1493.5C 1422.8,1488.86 1423.96,1484.69 1426.5,1481C 1426.5,1478.67 1426.5,1476.33 1426.5,1474C 1427.12,1471.82 1428.28,1469.99 1430,1468.5C 1430.22,1465.57 1430.72,1462.74 1431.5,1460C 1430.4,1458.87 1430.73,1458.04 1432.5,1457.5C 1433.08,1451.47 1434.75,1445.97 1437.5,1441C 1437.17,1440 1436.83,1439 1436.5,1438C 1437.67,1434.42 1439.33,1431.09 1441.5,1428C 1441.17,1427.67 1440.83,1427.33 1440.5,1427C 1441.1,1422.72 1442.43,1418.72 1444.5,1415C 1443.98,1414.44 1443.64,1413.77 1443.5,1413C 1446.13,1406.16 1448.63,1399.32 1451,1392.5C 1451.04,1387.54 1452.2,1382.87 1454.5,1378.5C 1453.93,1374.49 1455.1,1370.82 1458,1367.5C 1458.33,1364.17 1458.67,1360.83 1459,1357.5C 1459.33,1357.83 1459.67,1358.17 1460,1358.5C 1461.07,1354.92 1461.74,1351.25 1462,1347.5C 1462.71,1345.92 1463.54,1344.42 1464.5,1343C 1463.79,1341.66 1464.12,1340.32 1465.5,1339C 1464.86,1335.91 1465.69,1333.08 1468,1330.5C 1468.33,1327.83 1468.67,1325.17 1469,1322.5C 1471.3,1319.17 1472.13,1315.67 1471.5,1312C 1472.83,1309.33 1474.17,1306.67 1475.5,1304C 1475.5,1301.67 1475.5,1299.33 1475.5,1297C 1477.06,1295.42 1478.22,1293.58 1479,1291.5C 1479.08,1286.31 1480.24,1281.48 1482.5,1277C 1482.55,1272.84 1483.89,1268.84 1486.5,1265C 1486.17,1264.67 1485.83,1264.33 1485.5,1264C 1486.26,1261.93 1486.76,1259.76 1487,1257.5C 1487.67,1256.83 1488.33,1256.17 1489,1255.5C 1489,1250.66 1490.16,1246.16 1492.5,1242C 1491.52,1240.22 1491.85,1238.55 1493.5,1237C 1493.17,1236.67 1492.83,1236.33 1492.5,1236C 1493.29,1233.63 1494.46,1231.47 1496,1229.5C 1497.08,1223.05 1498.41,1216.72 1500,1210.5C 1500.98,1207.9 1502.14,1205.4 1503.5,1203C 1503.17,1202 1502.83,1201 1502.5,1200C 1505.8,1191.88 1508.47,1183.54 1510.5,1175C 1510.17,1174.67 1509.83,1174.33 1509.5,1174C 1512.65,1169.3 1513.98,1164.63 1513.5,1160C 1516.8,1156.15 1518.3,1151.65 1518,1146.5C 1520,1143.4 1520.5,1140.57 1519.5,1138C 1522.92,1132.67 1524.75,1126.83 1525,1120.5C 1525.67,1119.83 1526.33,1119.17 1527,1118.5C 1527.33,1115.5 1527.67,1112.5 1528,1109.5C 1530.5,1099.88 1533.5,1090.54 1537,1081.5C 1537.23,1078.91 1537.73,1076.41 1538.5,1074C 1538.17,1073.67 1537.83,1073.33 1537.5,1073C 1539.21,1070.54 1540.54,1067.88 1541.5,1065C 1541.17,1064.67 1540.83,1064.33 1540.5,1064C 1541.76,1059.22 1543.76,1054.72 1546.5,1050.5C 1848.5,1049.17 2150.5,1049.17 2452.5,1050.5C 2453.57,1053.44 2453.74,1056.44 2453,1059.5C 2444.06,1089.23 2435.73,1119.23 2428,1149.5C 2427.09,1150.33 2426.42,1151.33 2426,1152.5C 2423.97,1163.95 2421.3,1175.29 2418,1186.5C 2417.33,1187.17 2416.67,1187.83 2416,1188.5C 2414.98,1194.89 2413.64,1201.22 2412,1207.5C 2409.24,1212.47 2407.74,1217.8 2407.5,1223.5 Z"/></g>
<g><path style="opacity:0.102" fill="#d20b0a" d="M 695.5,1109.5 C 696.833,1110.17 696.833,1110.17 695.5,1109.5 Z"/></g>
<g><path style="opacity:0.102" fill="#d20b0a" d="M 692.5,1116.5 C 693.833,1117.17 693.833,1117.17 692.5,1116.5 Z"/></g>
<g><path style="opacity:0.102" fill="#d20b0a" d="M 2407.5,1223.5 C 2408.83,1224.17 2408.83,1224.17 2407.5,1223.5 Z"/></g>
<g><path style="opacity:0.102" fill="#d20b0a" d="M 2968.5,1252.5 C 2969.83,1253.17 2969.83,1253.17 2968.5,1252.5 Z"/></g>
<g><path style="opacity:0.102" fill="#d20b0a" d="M 1269.5,1345.5 C 1270.83,1346.17 1270.83,1346.17 1269.5,1345.5 Z"/></g>
<g><path style="opacity:0.102" fill="#d20b0a" d="M 1886.5,1347.5 C 1887.83,1348.17 1887.83,1348.17 1886.5,1347.5 Z"/></g>
<g><path style="opacity:0.102" fill="#d20b0a" d="M 1848.5,1484.5 C 1849.83,1485.17 1849.83,1485.17 1848.5,1484.5 Z"/></g>
<g><path style="opacity:0.102" fill="#d20b0a" d="M 1838.5,1521.5 C 1839.83,1522.17 1839.83,1522.17 1838.5,1521.5 Z"/></g>
<g><path style="opacity:0.102" fill="#d20b0a" d="M 1830.5,1548.5 C 1831.83,1549.17 1831.83,1549.17 1830.5,1548.5 Z"/></g>
<g><path style="opacity:0.102" fill="#d20b0a" d="M 3443.5,1552.5 C 3444.83,1553.17 3444.83,1553.17 3443.5,1552.5 Z"/></g>
<g><path style="opacity:0.102" fill="#d20b0a" d="M 1203.5,1583.5 C 1204.83,1584.17 1204.83,1584.17 1203.5,1583.5 Z"/></g>
<g><path style="opacity:0.102" fill="#d20b0a" d="M 3413.5,1669.5 C 3414.83,1670.17 3414.83,1670.17 3413.5,1669.5 Z"/></g>
<g><path style="opacity:0.102" fill="#d20b0a" d="M 1140.5,1741.5 C 1141.83,1742.17 1141.83,1742.17 1140.5,1741.5 Z"/></g>
<g><path style="opacity:0.102" fill="#d20b0a" d="M 187.5,1777.5 C 186.833,1778.17 186.833,1778.17 187.5,1777.5 Z"/></g>
<g><path style="opacity:0.102" fill="#d20b0a" d="M 1767.5,1779.5 C 1768.83,1780.17 1768.83,1780.17 1767.5,1779.5 Z"/></g>
<g><path style="opacity:0.102" fill="#d20b0a" d="M 2559.5,1800.5 C 2558.83,1801.17 2558.83,1801.17 2559.5,1800.5 Z"/></g>
<g><path style="opacity:0.102" fill="#d20b0a" d="M 1046.5,1805.5 C 1047.83,1806.17 1047.83,1806.17 1046.5,1805.5 Z"/></g>
<g><path style="opacity:0.102" fill="#d20b0a" d="M 2569.5,1805.5 C 2570.83,1806.17 2570.83,1806.17 2569.5,1805.5 Z"/></g>
<g><path style="opacity:0.102" fill="#d20b0a" d="M 263.5,1815.5 C 264.833,1816.17 264.833,1816.17 263.5,1815.5 Z"/></g>
<g><path style="opacity:0.102" fill="#d20b0a" d="M 2599.5,1815.5 C 2598.83,1816.17 2598.83,1816.17 2599.5,1815.5 Z"/></g>
<g><path style="opacity:0.102" fill="#d20b0a" d="M 975.5,1820.5 C 976.833,1821.17 976.833,1821.17 975.5,1820.5 Z"/></g>
<g><path style="opacity:0.102" fill="#d20b0a" d="M 311.5,1825.5 C 310.833,1826.17 310.833,1826.17 311.5,1825.5 Z"/></g>
<g><path style="opacity:0.404" fill="#e56a63" d="M 896.5,1828.5 C 712.833,1828.5 529.167,1828.5 345.5,1828.5C 347.56,1826.85 350.06,1825.85 353,1825.5C 529,1825.5 705,1825.5 881,1825.5C 883.667,1826.17 886.333,1826.83 889,1827.5C 889.75,1826.87 890.584,1826.37 891.5,1826C 889.5,1825.67 887.5,1825.33 885.5,1825C 890.169,1823.67 893.836,1824.84 896.5,1828.5 Z"/></g>
<g><path style="opacity:0.404" fill="#e56a64" d="M 1750.5,1828.5 C 1611.5,1828.5 1472.5,1828.5 1333.5,1828.5C 1333.61,1827.88 1333.94,1827.38 1334.5,1827C 1336.76,1826.76 1338.93,1826.26 1341,1825.5C 1477.15,1826.49 1613.48,1826.49 1750,1825.5C 1751.73,1826.35 1751.9,1827.35 1750.5,1828.5 Z"/></g>
<g><path style="opacity:0.404" fill="#e66c65" d="M 3364.5,1828.5 C 3135.17,1828.5 2905.83,1828.5 2676.5,1828.5C 2676.39,1827.88 2676.06,1827.38 2675.5,1827C 2678.09,1826.77 2680.59,1826.27 2683,1825.5C 2908.29,1826.46 3133.62,1826.46 3359,1825.5C 3361.07,1826.26 3363.24,1826.76 3365.5,1827C 3364.94,1827.38 3364.61,1827.88 3364.5,1828.5 Z"/></g>
<g><path style="opacity:0.102" fill="#e2523c" d="M 332.5,1827.5 C 331.749,1828.57 330.749,1828.74 329.5,1828C 330.448,1827.52 331.448,1827.35 332.5,1827.5 Z"/></g>
</svg>
